<svg xmlns="http://www.w3.org/2000/svg" style="display: none;"><symbol id="view-details" viewBox="0 0 18.453 18.453"><title>view-details</title><rect x="2.711" y="4.058" width="8.23" height="1.334"/><path d="M14.972,14.088c0.638-1.127,0.453-2.563-0.475-3.49c-0.549-0.549-1.279-0.852-2.058-0.852 c-0.779,0-1.51,0.303-2.059,0.852s-0.852,1.279-0.852,2.059c0,0.777,0.303,1.508,0.852,2.059c0.549,0.547,1.279,0.85,2.057,0.85 c0.507,0,0.998-0.129,1.434-0.375l3.262,3.262l1.101-1.102L14.972,14.088z M13.664,13.881c-0.652,0.652-1.796,0.652-2.448,0 c-0.675-0.676-0.675-1.773,0-2.449c0.326-0.326,0.762-0.506,1.225-0.506s0.897,0.18,1.224,0.506s0.507,0.762,0.507,1.225 S13.991,13.554,13.664,13.881z"/><path d="M13.332,16.3H1.857c-0.182,0-0.329-0.148-0.329-0.328V1.638c0-0.182,0.147-0.329,0.329-0.329 h11.475c0.182,0,0.328,0.147,0.328,0.329V8.95c0.475,0.104,0.918,0.307,1.31,0.597V1.638C14.97,0.735,14.236,0,13.332,0H1.857 C0.954,0,0.219,0.735,0.219,1.638v14.334c0,0.902,0.735,1.637,1.638,1.637h11.475c0.685,0,1.009-0.162,1.253-0.76l-0.594-0.594 C13.772,16.347,13.426,16.3,13.332,16.3z"/><rect x="2.711" y="7.818" width="8.23" height="1.334"/></symbol><symbol id="trash" viewBox="0 0 489.7 489.7"><title>trash</title><path d="M411.8,131.7c-9.5,0-17.2,7.7-17.2,17.2v288.2c0,10.1-8.2,18.4-18.4,18.4H113.3c-10.1,0-18.4-8.2-18.4-18.4V148.8 c0-9.5-7.7-17.2-17.1-17.2c-9.5,0-17.2,7.7-17.2,17.2V437c0,29,23.6,52.7,52.7,52.7h262.9c29,0,52.7-23.6,52.7-52.7V148.8 C428.9,139.3,421.2,131.7,411.8,131.7z"/><path d="M457.3,75.9H353V56.1C353,25.2,327.8,0,296.9,0H192.7c-31,0-56.1,25.2-56.1,56.1v19.8H32.3c-9.5,0-17.1,7.7-17.1,17.2 s7.7,17.1,17.1,17.1h425c9.5,0,17.2-7.7,17.2-17.1C474.4,83.5,466.8,75.9,457.3,75.9z M170.9,56.1c0-12,9.8-21.8,21.8-21.8h104.2 c12,0,21.8,9.8,21.8,21.8v19.8H170.9V56.1z"/><path d="M262,396.6V180.9c0-9.5-7.7-17.1-17.1-17.1s-17.1,7.7-17.1,17.1v215.7c0,9.5,7.7,17.1,17.1,17.1 C254.3,413.7,262,406.1,262,396.6z"/><path d="M186.1,396.6V180.9c0-9.5-7.7-17.1-17.2-17.1s-17.1,7.7-17.1,17.1v215.7c0,9.5,7.7,17.1,17.1,17.1 C178.4,413.7,186.1,406.1,186.1,396.6z"/><path d="M337.8,396.6V180.9c0-9.5-7.7-17.1-17.1-17.1s-17.1,7.7-17.1,17.1v215.7c0,9.5,7.7,17.1,17.1,17.1 S337.8,406.1,337.8,396.6z"/></symbol></svg>